# xmcd CD database file
#
# Track frame offsets:
# 183
# 16530
# 36060
# 62093
# 79368
# 93608
# 108718
# 123330
# 142228
# 162668
# 183170
# 208488
#
# Disc length: 2868  seconds
#
# Revision: 0
# Processed by: cddbd v1.4PL0 Copyright (c) Steve Scherf et al.
# Submitted via: Kronen-Design 1.33
#
DISCID=af0b320c
DTITLE=London Community Gospel Choir - Christmas with the London Co
DTITLE=mmunity Gospel Choir
DYEAR=1900
DGENRE=
TTITLE0=O Little Town of Bethlehem
TTITLE1=O Come all ye Faithful
TTITLE2=The Little Drummer Boy
TTITLE3=We Three Kings
TTITLE4=Angels from the Realms of Glory
TTITLE5=Hark the Herald Angels Sing
TTITLE6=Joy to the World
TTITLE7=Once in Royal David's City
TTITLE8=Away in a Manger
TTITLE9=God Rest You Merry Gentleman
TTITLE10=Silent Night
TTITLE11=Sleep in Heavenly Peace
EXTD=
EXTT0=
EXTT1=
EXTT2=
EXTT3=
EXTT4=
EXTT5=
EXTT6=
EXTT7=
EXTT8=
EXTT9=
EXTT10=
EXTT11=
PLAYORDER=
